#tb 0: 1/1000
0,          1,          1,        0,   126720, 0x689de87e
0,         33,         33,        0,   126720, 0x3db9e91c
0,         66,         66,        0,   126720, 0x3db9e91c
0,        100,        100,        0,   126720, 0x3db9e91c
0,        133,        133,        0,   126720, 0xfa6ae95e
0,        166,        166,        0,   126720, 0x5bcbf0e6
0,        200,        200,        0,   126720, 0x94a0f126
0,        233,        233,        0,   126720, 0x0250f106
0,        266,        266,        0,   126720, 0xcf6ab4bc
0,        300,        300,        0,   126720, 0x429eb57c
0,        333,        333,        0,   126720, 0x3bf0b5bc
0,        367,        367,        0,   126720, 0xcaedb591
0,        400,        400,        0,   126720, 0xa492b5ec
0,        433,        433,        0,   126720, 0x2431b85c
0,        467,        467,        0,   126720, 0x8283b8dc
0,        500,        500,        0,   126720, 0xd71bb871
0,        533,        533,        0,   126720, 0x698eb5cc
0,        567,        567,        0,   126720, 0x4719aa98
0,        600,        600,        0,   126720, 0x9ca1962c
0,        633,        633,        0,   126720, 0x18cda460
0,        667,        667,        0,   126720, 0xc230b716
0,        700,        700,        0,   126720, 0x8451a4e2
0,        734,        734,        0,   126720, 0x59e9a7ea
0,        767,        767,        0,   126720, 0xc77ca73d
0,        800,        800,        0,   126720, 0x725fb976
0,        834,        834,        0,   126720, 0xb30da3b3
0,        867,        867,        0,   126720, 0x7af2ea86
0,        900,        900,        0,   126720, 0x40d4b4eb
0,        934,        934,        0,   126720, 0x49d00307
0,        967,        967,        0,   126720, 0x0654849c
0,       1000,       1000,        0,   126720, 0xe46d0107
0,       1034,       1034,        0,   126720, 0xa483b963
0,       1067,       1067,        0,   126720, 0xd0e903f0
0,       1101,       1101,        0,   126720, 0x964ed592
0,       1134,       1134,        0,   126720, 0x23fbdb3c
0,       1167,       1167,        0,   126720, 0x59fdace5
0,       1201,       1201,        0,   126720, 0xb1e37954
0,       1234,       1234,        0,   126720, 0x8ed9c554
0,       1267,       1267,        0,   126720, 0xe3c4b39f
0,       1301,       1301,        0,   126720, 0xfd17e0ce
0,       1334,       1334,        0,   126720, 0xf26e1dcc
0,       1368,       1368,        0,   126720, 0x13cc783c
0,       1401,       1401,        0,   126720, 0x47ad47a1
0,       1434,       1434,        0,   126720, 0x427c8b0d
0,       1468,       1468,        0,   126720, 0x59d99901
0,       1501,       1501,        0,   126720, 0xc40707da
0,       1534,       1534,        0,   126720, 0xcd060dce
0,       1568,       1568,        0,   126720, 0xed4024f6
0,       1601,       1601,        0,   126720, 0x7decd2b4
0,       1634,       1634,        0,   126720, 0xd1d2e730
0,       1668,       1668,        0,   126720, 0x77cee457
0,       1701,       1701,        0,   126720, 0xe78d02c0
0,       1735,       1735,        0,   126720, 0xad0beb29
0,       1768,       1768,        0,   126720, 0xc414eea2
0,       1801,       1801,        0,   126720, 0x6a15f17d
0,       1835,       1835,        0,   126720, 0x516027f6
0,       1868,       1868,        0,   126720, 0x4eda9dce
0,       1901,       1901,        0,   126720, 0x7d9bdba3
0,       1935,       1935,        0,   126720, 0x7aa3d5c0
0,       1968,       1968,        0,   126720, 0x7c7a04f9
0,       2001,       2001,        0,   126720, 0x3e8fb6cc
0,       2035,       2035,        0,   126720, 0xd5474916
0,       2068,       2068,        0,   126720, 0xf3f62bab
0,       2102,       2102,        0,   126720, 0x2f054987
0,       2135,       2135,        0,   126720, 0x974c2e81
0,       2168,       2168,        0,   126720, 0xe7e28a97
0,       2202,       2202,        0,   126720, 0x45e38b41
0,       2235,       2235,        0,   126720, 0x169c7f19
0,       2268,       2268,        0,   126720, 0x91d90ee8
0,       2302,       2302,        0,   126720, 0xdd653e24
0,       2335,       2335,        0,   126720, 0x0da598c4
0,       2369,       2369,        0,   126720, 0x687e62cc
0,       2402,       2402,        0,   126720, 0x7631232d
0,       2435,       2435,        0,   126720, 0xbd1ea826
0,       2469,       2469,        0,   126720, 0xb55f7f4b
0,       2502,       2502,        0,   126720, 0x923f3fc9
0,       2535,       2535,        0,   126720, 0x15515301
0,       2569,       2569,        0,   126720, 0x9ee066e5
0,       2602,       2602,        0,   126720, 0x7c21664b
0,       2635,       2635,        0,   126720, 0x36849100
0,       2669,       2669,        0,   126720, 0x08b1f61a
0,       2702,       2702,        0,   126720, 0x5bfca6e2
0,       2736,       2736,        0,   126720, 0x929f60e3
0,       2769,       2769,        0,   126720, 0xa2b55c29
0,       2802,       2802,        0,   126720, 0x68bd3ff3
0,       2836,       2836,        0,   126720, 0x30db5b29
0,       2869,       2869,        0,   126720, 0x00578f9b
0,       2902,       2902,        0,   126720, 0x18368642
0,       2936,       2936,        0,   126720, 0xbcb83a80
0,       2969,       2969,        0,   126720, 0x90f36b72
0,       3002,       3002,        0,   126720, 0x85e46522
0,       3036,       3036,        0,   126720, 0x2429660a
0,       3069,       3069,        0,   126720, 0xf283dfe2
0,       3103,       3103,        0,   126720, 0x896b27dc
0,       3136,       3136,        0,   126720, 0x5af4f961
0,       3169,       3169,        0,   126720, 0x31897085
0,       3203,       3203,        0,   126720, 0x441ce33e
0,       3236,       3236,        0,   126720, 0x903f8009
0,       3269,       3269,        0,   126720, 0xbdf33dba
0,       3303,       3303,        0,   126720, 0x8a364f36
0,       3336,       3336,        0,   126720, 0xda5513f6
0,       3370,       3370,        0,   126720, 0xd60012b3
0,       3403,       3403,        0,   126720, 0x67bce7be
0,       3436,       3436,        0,   126720, 0x697e6174
0,       3470,       3470,        0,   126720, 0xbe3e3e90
0,       3503,       3503,        0,   126720, 0xf3e4bba6
0,       3536,       3536,        0,   126720, 0x8124a679
0,       3570,       3570,        0,   126720, 0x58d1acde
0,       3603,       3603,        0,   126720, 0xd8a15ba3
